<svg xmlns="http://www.w3.org/2000/svg" width="64px" height="64px" version="1.1">
  <g>
    <g transform="matrix(1.1468939,0,0,1.116529,-9.5607593,-5.0345798)">
      <g transform="matrix(0.60032251,0,0,0.73079052,29.615476,17.832322)">
        <g transform="matrix(0.90408252,0,0,1.0618473,-3.9239413,-3.5566801)">
          <rect y="53.2" x="20.6" height="4.3" width="23.1" class="cup-handler"/>
        </g>
        <path d="m 50.5 32.7 c -3.7 0 -6.7 2.5 -6.7 5.5 0 3 3 5.5 6.7 5.5 3.7 0 6.8 -2.5 6.8 -5.5 0 -3 -3 -5.5 -6.8 -5.5 z m 0 2.8 c 1.9 0 3.4 1.3 3.4 2.8 0 1.6 -1.5 2.8 -3.4 2.8 -1.9 0 -3.4 -1.3 -3.4 -2.8 0 -1.6 1.5 -2.8 3.4 -2.8 z" class="cup-handler"/>
      </g>
      <path d="M 41.5 40.2 C 38.4 45.3 33.5 49 27.7 50.5 C 29.3 55 31.9 58.7 35.2 60.8 L 48.2 60.8 C 53.5 57.4 57.1 49.9 57.1 41.3 C 57.1 41 57.1 40.6 57.1 40.2 L 41.5 40.2 z " transform="matrix(0.87192024,0,0,0.8956328,8.3362195,4.5091348)" class="cup-inside"/>
    </g>
    <g transform="matrix(1.614803,0,0,1.66067,-12.28211,63.275601)">
      <g transform="translate(-19.152786,23.436013)">
        <path d="m 40.4 -57.8 c -7.1 0 -12.9 5.8 -12.9 12.9 0 7.1 5.8 12.9 12.9 12.9 7.1 0 12.9 -5.8 12.9 -12.9 0 -7.1 -5.8 -12.9 -12.9 -12.9 z m 0.4 2.1 c 5.6 0.2 10.1 4.7 10.4 10.3 l -2 0 0 1 2 0 c -0.3 5.5 -4.6 9.9 -10.1 10.2 l 0 -2.2 -1.1 0 0 2.2 c -0.1 -0 -0.1 -0 -0.2 -0 -5.5 -0.3 -9.9 -4.7 -10.1 -10.3 l 2.2 0 0 -1.1 -2.2 0 c 0.3 -5.5 4.6 -9.9 10 -10.2 l 0 1.9 1.1 0 z m -1 3.1 0 7.8 -0.2 0.3 0.2 0.1 0 0.3 0.5 0 4.9 2.8 0.7 -1.1 -5.1 -3 0 -7.1 z" class="clock"/>
      </g>
    </g>
    <path d="m 51.3 23 c -0.2 0.3 -0.5 0.6 -0.7 0.9 -0.3 0.3 -0.6 0.6 -1 0.9 -0.4 0.3 -0.9 0.5 -1.3 0.8 -0.3 0.2 -0.5 0.5 -0.7 0.7 -0.1 0.3 -0.1 0.6 -0.1 0.9 0 0.3 0.1 0.6 0.3 0.9 0.2 0.3 0.3 0.6 0.6 0.9 0.2 0.3 0.5 0.6 0.7 0.9 0.2 0.3 0.4 0.5 0.6 0.8 0.2 0.3 0.5 0.6 0.7 0.9 0.2 0.3 0.4 0.6 0.6 0.9 0.2 0.3 0.3 0.7 0.4 1 0.1 0.4 0.1 0.7 0 1.1 -0.1 0.3 -0.3 0.6 -0.5 0.9 -0.3 0.3 -0.7 0.5 -1.1 0.8 -0.4 0.2 -0.8 0.4 -1.2 0.6 -1 0.5 -3.5 1.5 -0.5 0.2 0.1 -0 -0.1 0 -0.2 0.1 -0.1 0 -0.2 0.1 -0.3 0.2 -0.3 0.1 -0.6 0.3 -0.9 0.4 -0.1 0.1 -0.3 0.1 -0.4 0.2 l -1.7 0.5 0 0 c 0.1 -0.1 0.3 -0.1 0.4 -0.2 0.3 -0.2 0.6 -0.3 0.9 -0.4 0.2 -0.1 0.3 -0.2 0.5 -0.2 1.4 -0.6 2.9 -1.2 0.3 -0.1 -0.1 0 0.1 -0.1 0.2 -0.1 0.4 -0.2 0.8 -0.4 1.2 -0.6 0.4 -0.2 0.8 -0.4 1.1 -0.7 0.3 -0.3 0.5 -0.5 0.6 -0.8 0.1 -0.3 0.1 -0.7 0 -1 -0.1 -0.3 -0.2 -0.7 -0.4 -1 -0.2 -0.3 -0.4 -0.6 -0.6 -0.9 -0.2 -0.3 -0.5 -0.6 -0.7 -0.9 -0.2 -0.3 -0.4 -0.6 -0.6 -0.8 -0.2 -0.3 -0.5 -0.6 -0.7 -0.9 -0.2 -0.3 -0.4 -0.6 -0.6 -0.9 -0.1 -0.3 -0.3 -0.6 -0.3 -0.9 -0 -0.3 -0 -0.7 0.1 -1 0.1 -0.3 0.3 -0.6 0.7 -0.8 0.4 -0.3 0.7 -0.6 1.1 -0.9 0.4 -0.3 0.8 -0.5 1.1 -0.9 0.3 -0.3 0.6 -0.5 0.8 -0.8 l 1.7 -0.6 z" class="fog"/>
    <path d="m 56.9 26.2 c -0.1 0.3 -0.3 0.5 -0.6 0.8 -0.2 0.3 -0.4 0.5 -0.7 0.8 -0.3 0.2 -0.7 0.4 -1 0.6 -0.2 0.2 -0.4 0.4 -0.5 0.6 -0.1 0.2 -0.1 0.5 -0.1 0.8 0 0.3 0.1 0.5 0.2 0.8 0.1 0.2 0.3 0.5 0.4 0.7 0.2 0.3 0.4 0.5 0.5 0.8 0.2 0.2 0.3 0.4 0.5 0.7 0.2 0.3 0.3 0.5 0.5 0.7 0.2 0.3 0.3 0.5 0.5 0.8 0.1 0.3 0.2 0.6 0.3 0.8 0.1 0.3 0.1 0.6 0 0.9 -0.1 0.3 -0.2 0.5 -0.4 0.7 -0.2 0.2 -0.5 0.4 -0.8 0.6 -0.3 0.2 -0.6 0.4 -0.9 0.5 -0.8 0.4 -2.7 1.2 -0.4 0.2 0 -0 -0.1 0 -0.1 0.1 -0.1 0 -0.2 0.1 -0.2 0.1 -0.2 0.1 -0.4 0.2 -0.6 0.3 -0.1 0.1 -0.2 0.1 -0.3 0.2 l -1.3 0.4 0 0 c 0.1 -0.1 0.2 -0.1 0.3 -0.2 0.2 -0.1 0.4 -0.2 0.7 -0.3 0.1 -0.1 0.2 -0.1 0.4 -0.2 1.1 -0.5 2.2 -1 0.3 -0.1 -0 0 0.1 -0 0.1 -0.1 0.3 -0.2 0.6 -0.3 0.9 -0.5 0.3 -0.2 0.6 -0.4 0.8 -0.6 0.2 -0.2 0.4 -0.4 0.4 -0.7 0.1 -0.3 0.1 -0.6 0 -0.9 -0.1 -0.3 -0.1 -0.6 -0.3 -0.8 -0.1 -0.3 -0.3 -0.5 -0.5 -0.8 -0.2 -0.2 -0.4 -0.5 -0.5 -0.7 -0.1 -0.2 -0.3 -0.5 -0.5 -0.7 -0.2 -0.3 -0.4 -0.5 -0.5 -0.8 -0.2 -0.2 -0.3 -0.5 -0.4 -0.7 -0.1 -0.3 -0.2 -0.5 -0.2 -0.8 -0 -0.3 -0 -0.5 0.1 -0.8 0.1 -0.3 0.3 -0.5 0.5 -0.7 0.3 -0.2 0.5 -0.5 0.8 -0.7 0.3 -0.2 0.6 -0.4 0.8 -0.7 0.2 -0.2 0.5 -0.4 0.6 -0.7 L 56.9 26.2 z" class="fog"/>
  </g>
</svg>
